<svg width="50" height="50" viewBox="0 0 50 50" fill="none" xmlns="http://www.w3.org/2000/svg">
<path d="M14.6392 38V32.1818H15.517V34.7102H18.4176V32.1818H19.2983V38H18.4176V35.4631H15.517V38H14.6392ZM22.3466 38.0881C21.9375 38.0881 21.5805 37.9943 21.2756 37.8068C20.9706 37.6193 20.7339 37.357 20.5653 37.0199C20.3968 36.6828 20.3125 36.2888 20.3125 35.8381C20.3125 35.3854 20.3968 34.9896 20.5653 34.6506C20.7339 34.3116 20.9706 34.0483 21.2756 33.8608C21.5805 33.6733 21.9375 33.5795 22.3466 33.5795C22.7557 33.5795 23.1127 33.6733 23.4176 33.8608C23.7225 34.0483 23.9593 34.3116 24.1278 34.6506C24.2964 34.9896 24.3807 35.3854 24.3807 35.8381C24.3807 36.2888 24.2964 36.6828 24.1278 37.0199C23.9593 37.357 23.7225 37.6193 23.4176 37.8068C23.1127 37.9943 22.7557 38.0881 22.3466 38.0881ZM22.3494 37.375C22.6146 37.375 22.8343 37.3049 23.0085 37.1648C23.1828 37.0246 23.3116 36.8381 23.3949 36.6051C23.4801 36.3722 23.5227 36.1155 23.5227 35.8352C23.5227 35.5568 23.4801 35.3011 23.3949 35.0682C23.3116 34.8333 23.1828 34.6449 23.0085 34.5028C22.8343 34.3608 22.6146 34.2898 22.3494 34.2898C22.0824 34.2898 21.8608 34.3608 21.6847 34.5028C21.5104 34.6449 21.3807 34.8333 21.2955 35.0682C21.2121 35.3011 21.1705 35.5568 21.1705 35.8352C21.1705 36.1155 21.2121 36.3722 21.2955 36.6051C21.3807 36.8381 21.5104 37.0246 21.6847 37.1648C21.8608 37.3049 22.0824 37.375 22.3494 37.375ZM25.3288 38V33.6364H26.1442V34.3466H26.1982C26.2891 34.1061 26.4377 33.9186 26.6442 33.7841C26.8506 33.6477 27.0978 33.5795 27.3857 33.5795C27.6773 33.5795 27.9216 33.6477 28.1186 33.7841C28.3175 33.9205 28.4643 34.108 28.5589 34.3466H28.6044C28.7086 34.1136 28.8743 33.928 29.1016 33.7898C29.3288 33.6496 29.5997 33.5795 29.9141 33.5795C30.3099 33.5795 30.6328 33.7036 30.8828 33.9517C31.1347 34.1998 31.2607 34.5739 31.2607 35.0739V38H30.4112V35.1534C30.4112 34.858 30.3307 34.6439 30.1697 34.5114C30.0088 34.3788 29.8165 34.3125 29.593 34.3125C29.3165 34.3125 29.1016 34.3977 28.9482 34.5682C28.7947 34.7367 28.718 34.9536 28.718 35.2188V38H27.8714V35.0994C27.8714 34.8627 27.7976 34.6723 27.6499 34.5284C27.5021 34.3845 27.3099 34.3125 27.0732 34.3125C26.9122 34.3125 26.7635 34.3551 26.6271 34.4403C26.4927 34.5237 26.3838 34.6402 26.3004 34.7898C26.219 34.9394 26.1783 35.1127 26.1783 35.3097V38H25.3288ZM34.2798 38.0881C33.8499 38.0881 33.4796 37.9962 33.169 37.8125C32.8603 37.6269 32.6217 37.3665 32.4531 37.0312C32.2865 36.6941 32.2031 36.2992 32.2031 35.8466C32.2031 35.3996 32.2865 35.0057 32.4531 34.6648C32.6217 34.3239 32.8565 34.0578 33.1577 33.8665C33.4607 33.6752 33.8149 33.5795 34.2202 33.5795C34.4664 33.5795 34.705 33.6203 34.9361 33.7017C35.1671 33.7831 35.3745 33.911 35.5582 34.0852C35.742 34.2595 35.8868 34.4858 35.9929 34.7642C36.099 35.0407 36.152 35.3769 36.152 35.7727V36.0739H32.6832V35.4375H35.3196C35.3196 35.214 35.2741 35.0161 35.1832 34.8438C35.0923 34.6695 34.9645 34.5322 34.7997 34.4318C34.6368 34.3314 34.4455 34.2812 34.2259 34.2812C33.9872 34.2812 33.7789 34.34 33.6009 34.4574C33.4247 34.5729 33.2884 34.7244 33.1918 34.9119C33.0971 35.0975 33.0497 35.2992 33.0497 35.517V36.0142C33.0497 36.3059 33.1009 36.554 33.2031 36.7585C33.3073 36.9631 33.4522 37.1193 33.6378 37.2273C33.8234 37.3333 34.0402 37.3864 34.2884 37.3864C34.4493 37.3864 34.5961 37.3636 34.7287 37.3182C34.8613 37.2708 34.9759 37.2008 35.0724 37.108C35.169 37.0152 35.2429 36.9006 35.294 36.7642L36.098 36.9091C36.0336 37.1458 35.9181 37.3532 35.7514 37.5312C35.5866 37.7074 35.3793 37.8447 35.1293 37.9432C34.8812 38.0398 34.598 38.0881 34.2798 38.0881Z" fill="#090C9B"/>
<path d="M30.79 28.75H19.21C16.47 28.75 14.25 26.52 14.25 23.78V16.37C14.25 15.01 15.09 13.3 16.17 12.46L21.56 8.26C23.18 7 25.77 6.94 27.45 8.12L33.63 12.45C34.82 13.28 35.75 15.06 35.75 16.51V23.79C35.75 26.52 33.53 28.75 30.79 28.75ZM22.48 9.44L17.09 13.64C16.38 14.2 15.75 15.47 15.75 16.37V23.78C15.75 25.69 17.3 27.25 19.21 27.25H30.79C32.7 27.25 34.25 25.7 34.25 23.79V16.51C34.25 15.55 33.56 14.22 32.77 13.68L26.59 9.35C25.45 8.55 23.57 8.59 22.48 9.44Z" fill="#090C9B"/>
<path d="M25 24.75C24.59 24.75 24.25 24.41 24.25 24V21C24.25 20.59 24.59 20.25 25 20.25C25.41 20.25 25.75 20.59 25.75 21V24C25.75 24.41 25.41 24.75 25 24.75Z" fill="#090C9B"/>
</svg>
