<svg width="50" height="50" viewBox="0 0 50 50" fill="none" xmlns="http://www.w3.org/2000/svg">
<path d="M14.7045 38V32.1818H15.4091V34.7727H18.5114V32.1818H19.2159V38H18.5114V35.3977H15.4091V38H14.7045ZM22.3082 38.0909C21.9143 38.0909 21.5687 37.9972 21.2713 37.8097C20.9759 37.6222 20.7448 37.3598 20.5781 37.0227C20.4134 36.6856 20.331 36.2917 20.331 35.8409C20.331 35.3864 20.4134 34.9896 20.5781 34.6506C20.7448 34.3116 20.9759 34.0483 21.2713 33.8608C21.5687 33.6733 21.9143 33.5795 22.3082 33.5795C22.7022 33.5795 23.0469 33.6733 23.3423 33.8608C23.6397 34.0483 23.8707 34.3116 24.0355 34.6506C24.2022 34.9896 24.2855 35.3864 24.2855 35.8409C24.2855 36.2917 24.2022 36.6856 24.0355 37.0227C23.8707 37.3598 23.6397 37.6222 23.3423 37.8097C23.0469 37.9972 22.7022 38.0909 22.3082 38.0909ZM22.3082 37.4886C22.6075 37.4886 22.8537 37.4119 23.0469 37.2585C23.2401 37.1051 23.383 36.9034 23.4759 36.6534C23.5687 36.4034 23.6151 36.1326 23.6151 35.8409C23.6151 35.5492 23.5687 35.2775 23.4759 35.0256C23.383 34.7737 23.2401 34.5701 23.0469 34.4148C22.8537 34.2595 22.6075 34.1818 22.3082 34.1818C22.009 34.1818 21.7628 34.2595 21.5696 34.4148C21.3764 34.5701 21.2334 34.7737 21.1406 35.0256C21.0478 35.2775 21.0014 35.5492 21.0014 35.8409C21.0014 36.1326 21.0478 36.4034 21.1406 36.6534C21.2334 36.9034 21.3764 37.1051 21.5696 37.2585C21.7628 37.4119 22.009 37.4886 22.3082 37.4886ZM25.3089 38V33.6364H25.9567V34.3182H26.0135C26.1044 34.0852 26.2512 33.9044 26.4538 33.7756C26.6565 33.6449 26.8999 33.5795 27.1839 33.5795C27.4718 33.5795 27.7114 33.6449 27.9027 33.7756C28.0959 33.9044 28.2464 34.0852 28.3544 34.3182H28.3999C28.5116 34.0928 28.6792 33.9138 28.9027 33.7812C29.1262 33.6468 29.3942 33.5795 29.7067 33.5795C30.0968 33.5795 30.416 33.7017 30.6641 33.946C30.9122 34.1884 31.0362 34.5663 31.0362 35.0795V38H30.3658V35.0795C30.3658 34.7576 30.2777 34.5275 30.1016 34.3892C29.9254 34.2509 29.718 34.1818 29.4794 34.1818C29.1726 34.1818 28.9349 34.2746 28.7663 34.4602C28.5978 34.6439 28.5135 34.8769 28.5135 35.1591V38H27.8317V35.0114C27.8317 34.7633 27.7512 34.5634 27.5902 34.4119C27.4292 34.2585 27.2218 34.1818 26.968 34.1818C26.7938 34.1818 26.6309 34.2282 26.4794 34.321C26.3298 34.4138 26.2086 34.5426 26.1158 34.7074C26.0249 34.8703 25.9794 35.0587 25.9794 35.2727V38H25.3089ZM34.0916 38.0909C33.6712 38.0909 33.3085 37.9981 33.0036 37.8125C32.7005 37.625 32.4666 37.3636 32.3018 37.0284C32.139 36.6913 32.0575 36.2992 32.0575 35.8523C32.0575 35.4053 32.139 35.0114 32.3018 34.6705C32.4666 34.3277 32.6958 34.0606 32.9893 33.8693C33.2848 33.6761 33.6295 33.5795 34.0234 33.5795C34.2507 33.5795 34.4751 33.6174 34.6967 33.6932C34.9183 33.7689 35.12 33.892 35.3018 34.0625C35.4837 34.2311 35.6286 34.4545 35.7365 34.733C35.8445 35.0114 35.8984 35.3542 35.8984 35.7614V36.0455H32.5348V35.4659H35.2166C35.2166 35.2197 35.1674 35 35.0689 34.8068C34.9723 34.6136 34.834 34.4612 34.6541 34.3494C34.4761 34.2377 34.2659 34.1818 34.0234 34.1818C33.7564 34.1818 33.5253 34.2481 33.3303 34.3807C33.1371 34.5114 32.9884 34.6818 32.8842 34.892C32.7801 35.1023 32.728 35.3277 32.728 35.5682V35.9545C32.728 36.2841 32.7848 36.5634 32.8984 36.7926C33.014 37.0199 33.174 37.1932 33.3786 37.3125C33.5831 37.4299 33.8208 37.4886 34.0916 37.4886C34.2678 37.4886 34.4268 37.464 34.5689 37.4148C34.7128 37.3636 34.8369 37.2879 34.9411 37.1875C35.0452 37.0852 35.1257 36.9583 35.1825 36.8068L35.8303 36.9886C35.7621 37.2083 35.6475 37.4015 35.4865 37.5682C35.3255 37.733 35.1267 37.8617 34.8899 37.9545C34.6532 38.0455 34.3871 38.0909 34.0916 38.0909Z" fill="#333333"/>
<path d="M30.79 28.75H19.21C16.47 28.75 14.25 26.52 14.25 23.78V16.37C14.25 15.01 15.09 13.3 16.17 12.46L21.56 8.26C23.18 7 25.77 6.94 27.45 8.12L33.63 12.45C34.82 13.28 35.75 15.06 35.75 16.51V23.79C35.75 26.52 33.53 28.75 30.79 28.75ZM22.48 9.44L17.09 13.64C16.38 14.2 15.75 15.47 15.75 16.37V23.78C15.75 25.69 17.3 27.25 19.21 27.25H30.79C32.7 27.25 34.25 25.7 34.25 23.79V16.51C34.25 15.55 33.56 14.22 32.77 13.68L26.59 9.35C25.45 8.55 23.57 8.59 22.48 9.44Z" fill="#333333"/>
<path d="M25 24.75C24.59 24.75 24.25 24.41 24.25 24V21C24.25 20.59 24.59 20.25 25 20.25C25.41 20.25 25.75 20.59 25.75 21V24C25.75 24.41 25.41 24.75 25 24.75Z" fill="#333333"/>
</svg>
