<svg width="50" height="50" viewBox="0 0 50 50" fill="none" xmlns="http://www.w3.org/2000/svg">
<path d="M17.9006 32.1818H18.7756V36.3068C18.7756 36.6799 18.7017 36.9991 18.554 37.2642C18.4081 37.5294 18.2027 37.732 17.9375 37.8722C17.6723 38.0104 17.3617 38.0795 17.0057 38.0795C16.678 38.0795 16.3835 38.0199 16.1222 37.9006C15.8627 37.7812 15.6572 37.608 15.5057 37.3807C15.3561 37.1515 15.2812 36.8731 15.2812 36.5455H16.1534C16.1534 36.7064 16.1903 36.8456 16.2642 36.9631C16.34 37.0805 16.4432 37.1723 16.5739 37.2386C16.7064 37.303 16.858 37.3352 17.0284 37.3352C17.214 37.3352 17.3712 37.2964 17.5 37.2188C17.6307 37.1392 17.7301 37.0227 17.7983 36.8693C17.8665 36.7159 17.9006 36.5284 17.9006 36.3068V32.1818ZM21.8232 38.0881C21.4141 38.0881 21.0571 37.9943 20.7521 37.8068C20.4472 37.6193 20.2105 37.357 20.0419 37.0199C19.8733 36.6828 19.7891 36.2888 19.7891 35.8381C19.7891 35.3854 19.8733 34.9896 20.0419 34.6506C20.2105 34.3116 20.4472 34.0483 20.7521 33.8608C21.0571 33.6733 21.4141 33.5795 21.8232 33.5795C22.2322 33.5795 22.5893 33.6733 22.8942 33.8608C23.1991 34.0483 23.4358 34.3116 23.6044 34.6506C23.773 34.9896 23.8572 35.3854 23.8572 35.8381C23.8572 36.2888 23.773 36.6828 23.6044 37.0199C23.4358 37.357 23.1991 37.6193 22.8942 37.8068C22.5893 37.9943 22.2322 38.0881 21.8232 38.0881ZM21.826 37.375C22.0911 37.375 22.3108 37.3049 22.4851 37.1648C22.6593 37.0246 22.7881 36.8381 22.8714 36.6051C22.9567 36.3722 22.9993 36.1155 22.9993 35.8352C22.9993 35.5568 22.9567 35.3011 22.8714 35.0682C22.7881 34.8333 22.6593 34.6449 22.4851 34.5028C22.3108 34.3608 22.0911 34.2898 21.826 34.2898C21.5589 34.2898 21.3374 34.3608 21.1612 34.5028C20.987 34.6449 20.8572 34.8333 20.772 35.0682C20.6887 35.3011 20.647 35.5568 20.647 35.8352C20.647 36.1155 20.6887 36.3722 20.772 36.6051C20.8572 36.8381 20.987 37.0246 21.1612 37.1648C21.3374 37.3049 21.5589 37.375 21.826 37.375ZM24.8736 38V32.1818H25.723V34.3438H25.7741C25.8234 34.2528 25.8944 34.1477 25.9872 34.0284C26.08 33.9091 26.2088 33.8049 26.3736 33.7159C26.5384 33.625 26.7562 33.5795 27.027 33.5795C27.3793 33.5795 27.6937 33.6686 27.9702 33.8466C28.2467 34.0246 28.4635 34.2812 28.6207 34.6165C28.7798 34.9517 28.8594 35.3551 28.8594 35.8267C28.8594 36.2983 28.7808 36.7027 28.6236 37.0398C28.4664 37.375 28.2505 37.6335 27.9759 37.8153C27.7012 37.9953 27.3878 38.0852 27.0355 38.0852C26.7704 38.0852 26.5535 38.0407 26.3849 37.9517C26.2183 37.8627 26.0876 37.7585 25.9929 37.6392C25.8982 37.5199 25.8253 37.4138 25.7741 37.321H25.7031V38H24.8736ZM25.706 35.8182C25.706 36.125 25.7505 36.3939 25.8395 36.625C25.9285 36.8561 26.0573 37.0369 26.2259 37.1676C26.3944 37.2964 26.6009 37.3608 26.8452 37.3608C27.099 37.3608 27.3111 37.2936 27.4815 37.1591C27.652 37.0227 27.7808 36.8381 27.8679 36.6051C27.9569 36.3722 28.0014 36.1098 28.0014 35.8182C28.0014 35.5303 27.9579 35.2718 27.8707 35.0426C27.7855 34.8134 27.6567 34.6326 27.4844 34.5C27.3139 34.3674 27.1009 34.3011 26.8452 34.3011C26.599 34.3011 26.3906 34.3646 26.2202 34.4915C26.0516 34.6184 25.9238 34.7955 25.8366 35.0227C25.7495 35.25 25.706 35.5152 25.706 35.8182ZM33.0831 34.7017L32.3132 34.8381C32.281 34.7396 32.2299 34.6458 32.1598 34.5568C32.0916 34.4678 31.9988 34.3949 31.8814 34.3381C31.764 34.2812 31.6172 34.2528 31.4411 34.2528C31.2005 34.2528 30.9998 34.3068 30.8388 34.4148C30.6778 34.5208 30.5973 34.6581 30.5973 34.8267C30.5973 34.9725 30.6513 35.09 30.7592 35.179C30.8672 35.268 31.0414 35.3409 31.282 35.3977L31.9751 35.5568C32.3767 35.6496 32.6759 35.7926 32.8729 35.9858C33.0698 36.179 33.1683 36.4299 33.1683 36.7386C33.1683 37 33.0926 37.233 32.9411 37.4375C32.7914 37.6402 32.5821 37.7992 32.3132 37.9148C32.0462 38.0303 31.7365 38.0881 31.3842 38.0881C30.8956 38.0881 30.4969 37.9839 30.1882 37.7756C29.8795 37.5653 29.6901 37.267 29.62 36.8807L30.4411 36.7557C30.4922 36.9697 30.5973 37.1316 30.7564 37.2415C30.9155 37.3494 31.1229 37.4034 31.3786 37.4034C31.657 37.4034 31.8795 37.3456 32.0462 37.2301C32.2128 37.1127 32.2962 36.9697 32.2962 36.8011C32.2962 36.6648 32.245 36.5502 32.1428 36.4574C32.0424 36.3646 31.888 36.2945 31.6797 36.2472L30.9411 36.0852C30.5339 35.9924 30.2327 35.8447 30.0376 35.642C29.8445 35.4394 29.7479 35.1828 29.7479 34.8722C29.7479 34.6146 29.8198 34.3892 29.9638 34.196C30.1077 34.0028 30.3066 33.8523 30.5604 33.7443C30.8142 33.6345 31.1049 33.5795 31.4325 33.5795C31.9041 33.5795 32.2753 33.6818 32.5462 33.8864C32.817 34.089 32.996 34.3608 33.0831 34.7017Z" fill="#090C9B"/>
<path d="M32.6154 13.1538H17.3846C16.6199 13.1538 16 13.7738 16 14.5385V25.6154C16 26.3801 16.6199 27 17.3846 27H32.6154C33.3801 27 34 26.3801 34 25.6154V14.5385C34 13.7738 33.3801 13.1538 32.6154 13.1538Z" stroke="#090C9B" stroke-width="1.5" stroke-linecap="round" stroke-linejoin="round"/>
<path d="M29.1538 13.1538V10.3846C29.1538 10.0174 29.0079 9.66521 28.7483 9.40554C28.4886 9.14588 28.1364 9 27.7692 9H22.2307C21.8635 9 21.5113 9.14588 21.2517 9.40554C20.992 9.66521 20.8461 10.0174 20.8461 10.3846V13.1538" stroke="#090C9B" stroke-width="1.5" stroke-linecap="round" stroke-linejoin="round"/>
</svg>
