<svg width="50" height="50" viewBox="0 0 50 50" fill="none" xmlns="http://www.w3.org/2000/svg">
<path d="M17.9318 32.1818H18.6364V36.3409C18.6364 36.7121 18.5682 37.0275 18.4318 37.2869C18.2955 37.5464 18.1032 37.7434 17.8551 37.8778C17.607 38.0123 17.3144 38.0795 16.9773 38.0795C16.6591 38.0795 16.3759 38.0218 16.1278 37.9062C15.8797 37.7888 15.6847 37.6222 15.5426 37.4062C15.4006 37.1903 15.3295 36.9337 15.3295 36.6364H16.0227C16.0227 36.8011 16.0634 36.9451 16.1449 37.0682C16.2282 37.1894 16.3419 37.2841 16.4858 37.3523C16.6297 37.4205 16.7936 37.4545 16.9773 37.4545C17.1799 37.4545 17.3523 37.4119 17.4943 37.3267C17.6364 37.2415 17.7443 37.1165 17.8182 36.9517C17.8939 36.785 17.9318 36.5814 17.9318 36.3409V32.1818ZM21.7301 38.0909C21.3362 38.0909 20.9905 37.9972 20.6932 37.8097C20.3977 37.6222 20.1667 37.3598 20 37.0227C19.8352 36.6856 19.7528 36.2917 19.7528 35.8409C19.7528 35.3864 19.8352 34.9896 20 34.6506C20.1667 34.3116 20.3977 34.0483 20.6932 33.8608C20.9905 33.6733 21.3362 33.5795 21.7301 33.5795C22.1241 33.5795 22.4688 33.6733 22.7642 33.8608C23.0616 34.0483 23.2926 34.3116 23.4574 34.6506C23.6241 34.9896 23.7074 35.3864 23.7074 35.8409C23.7074 36.2917 23.6241 36.6856 23.4574 37.0227C23.2926 37.3598 23.0616 37.6222 22.7642 37.8097C22.4688 37.9972 22.1241 38.0909 21.7301 38.0909ZM21.7301 37.4886C22.0294 37.4886 22.2756 37.4119 22.4688 37.2585C22.6619 37.1051 22.8049 36.9034 22.8977 36.6534C22.9905 36.4034 23.0369 36.1326 23.0369 35.8409C23.0369 35.5492 22.9905 35.2775 22.8977 35.0256C22.8049 34.7737 22.6619 34.5701 22.4688 34.4148C22.2756 34.2595 22.0294 34.1818 21.7301 34.1818C21.4309 34.1818 21.1847 34.2595 20.9915 34.4148C20.7983 34.5701 20.6553 34.7737 20.5625 35.0256C20.4697 35.2775 20.4233 35.5492 20.4233 35.8409C20.4233 36.1326 20.4697 36.4034 20.5625 36.6534C20.6553 36.9034 20.7983 37.1051 20.9915 37.2585C21.1847 37.4119 21.4309 37.4886 21.7301 37.4886ZM24.8217 38V32.1818H25.4922V34.3295H25.549C25.5982 34.2538 25.6664 34.1572 25.7536 34.0398C25.8426 33.9205 25.9695 33.8144 26.1342 33.7216C26.3009 33.6269 26.5263 33.5795 26.8104 33.5795C27.1778 33.5795 27.5017 33.6714 27.782 33.8551C28.0623 34.0388 28.281 34.2992 28.4382 34.6364C28.5954 34.9735 28.674 35.3712 28.674 35.8295C28.674 36.2917 28.5954 36.6922 28.4382 37.0312C28.281 37.3684 28.0632 37.6297 27.7848 37.8153C27.5064 37.9991 27.1854 38.0909 26.8217 38.0909C26.5414 38.0909 26.317 38.0445 26.1484 37.9517C25.9799 37.857 25.8501 37.75 25.7592 37.6307C25.6683 37.5095 25.5982 37.4091 25.549 37.3295H25.4695V38H24.8217ZM25.4808 35.8182C25.4808 36.1477 25.5291 36.4384 25.6257 36.6903C25.7223 36.9403 25.8634 37.1364 26.049 37.2784C26.2346 37.4186 26.4619 37.4886 26.7308 37.4886C27.0111 37.4886 27.245 37.4148 27.4325 37.267C27.6219 37.1174 27.764 36.9167 27.8587 36.6648C27.9553 36.411 28.0036 36.1288 28.0036 35.8182C28.0036 35.5114 27.9562 35.2348 27.8615 34.9886C27.7687 34.7405 27.6276 34.5445 27.4382 34.4006C27.2507 34.2547 27.0149 34.1818 26.7308 34.1818C26.4581 34.1818 26.2289 34.2509 26.0433 34.3892C25.8577 34.5256 25.7176 34.7169 25.6229 34.9631C25.5282 35.2074 25.4808 35.4924 25.4808 35.8182ZM32.7905 34.6136L32.1882 34.7841C32.1503 34.6837 32.0945 34.5862 32.0206 34.4915C31.9486 34.3949 31.8501 34.3153 31.7251 34.2528C31.6001 34.1903 31.4401 34.1591 31.245 34.1591C30.978 34.1591 30.7554 34.2206 30.5774 34.3438C30.4013 34.465 30.3132 34.6193 30.3132 34.8068C30.3132 34.9735 30.3738 35.1051 30.495 35.2017C30.6162 35.2983 30.8056 35.3788 31.0632 35.4432L31.7109 35.6023C32.1011 35.697 32.3918 35.8419 32.5831 36.0369C32.7744 36.2301 32.87 36.4792 32.87 36.7841C32.87 37.0341 32.7981 37.2576 32.6541 37.4545C32.5121 37.6515 32.3132 37.8068 32.0575 37.9205C31.8018 38.0341 31.5045 38.0909 31.1655 38.0909C30.7204 38.0909 30.352 37.9943 30.0604 37.8011C29.7687 37.608 29.584 37.3258 29.5064 36.9545L30.1428 36.7955C30.2034 37.0303 30.3179 37.2064 30.4865 37.3239C30.657 37.4413 30.8795 37.5 31.1541 37.5C31.4666 37.5 31.7147 37.4337 31.8984 37.3011C32.084 37.1667 32.1768 37.0057 32.1768 36.8182C32.1768 36.6667 32.1238 36.5398 32.0178 36.4375C31.9117 36.3333 31.7488 36.2557 31.5291 36.2045L30.8018 36.0341C30.4022 35.9394 30.1087 35.7926 29.9212 35.5938C29.7356 35.393 29.6428 35.142 29.6428 34.8409C29.6428 34.5947 29.7119 34.3769 29.8501 34.1875C29.9903 33.9981 30.1806 33.8494 30.4212 33.7415C30.6636 33.6335 30.9382 33.5795 31.245 33.5795C31.6768 33.5795 32.0159 33.6742 32.2621 33.8636C32.5102 34.053 32.6863 34.303 32.7905 34.6136Z" fill="#333333"/>
<path d="M32.6154 13.1538H17.3846C16.6199 13.1538 16 13.7738 16 14.5385V25.6154C16 26.3801 16.6199 27 17.3846 27H32.6154C33.3801 27 34 26.3801 34 25.6154V14.5385C34 13.7738 33.3801 13.1538 32.6154 13.1538Z" stroke="#171717" stroke-width="1.5" stroke-linecap="round" stroke-linejoin="round"/>
<path d="M29.1538 13.1538V10.3846C29.1538 10.0174 29.0079 9.66521 28.7483 9.40554C28.4886 9.14588 28.1364 9 27.7692 9H22.2307C21.8635 9 21.5113 9.14588 21.2517 9.40554C20.992 9.66521 20.8461 10.0174 20.8461 10.3846V13.1538" stroke="#171717" stroke-width="1.5" stroke-linecap="round" stroke-linejoin="round"/>
</svg>
