<svg width="50" height="50" viewBox="0 0 50 50" fill="none" xmlns="http://www.w3.org/2000/svg">
<path d="M5.6392 32.1818H6.70455L8.55682 36.7045H8.625L10.4773 32.1818H11.5426V38H10.7074V33.7898H10.6534L8.9375 37.9915H8.24432L6.52841 33.7869H6.47443V38H5.6392V32.1818ZM14.6314 38.0881C14.2015 38.0881 13.8312 37.9962 13.5206 37.8125C13.2119 37.6269 12.9732 37.3665 12.8047 37.0312C12.638 36.6941 12.5547 36.2992 12.5547 35.8466C12.5547 35.3996 12.638 35.0057 12.8047 34.6648C12.9732 34.3239 13.2081 34.0578 13.5092 33.8665C13.8123 33.6752 14.1664 33.5795 14.5717 33.5795C14.8179 33.5795 15.0566 33.6203 15.2876 33.7017C15.5187 33.7831 15.7261 33.911 15.9098 34.0852C16.0935 34.2595 16.2384 34.4858 16.3445 34.7642C16.4505 35.0407 16.5036 35.3769 16.5036 35.7727V36.0739H13.0348V35.4375H15.6712C15.6712 35.214 15.6257 35.0161 15.5348 34.8438C15.4439 34.6695 15.3161 34.5322 15.1513 34.4318C14.9884 34.3314 14.7971 34.2812 14.5774 34.2812C14.3388 34.2812 14.1304 34.34 13.9524 34.4574C13.7763 34.5729 13.6399 34.7244 13.5433 34.9119C13.4486 35.0975 13.4013 35.2992 13.4013 35.517V36.0142C13.4013 36.3059 13.4524 36.554 13.5547 36.7585C13.6589 36.9631 13.8037 37.1193 13.9893 37.2273C14.175 37.3333 14.3918 37.3864 14.6399 37.3864C14.8009 37.3864 14.9477 37.3636 15.0803 37.3182C15.2128 37.2708 15.3274 37.2008 15.424 37.108C15.5206 37.0152 15.5945 36.9006 15.6456 36.7642L16.4496 36.9091C16.3852 37.1458 16.2696 37.3532 16.103 37.5312C15.9382 37.7074 15.7308 37.8447 15.4808 37.9432C15.2327 38.0398 14.9496 38.0881 14.6314 38.0881ZM20.7159 34.7017L19.946 34.8381C19.9138 34.7396 19.8627 34.6458 19.7926 34.5568C19.7244 34.4678 19.6316 34.3949 19.5142 34.3381C19.3968 34.2812 19.25 34.2528 19.0739 34.2528C18.8333 34.2528 18.6326 34.3068 18.4716 34.4148C18.3106 34.5208 18.2301 34.6581 18.2301 34.8267C18.2301 34.9725 18.2841 35.09 18.392 35.179C18.5 35.268 18.6742 35.3409 18.9148 35.3977L19.608 35.5568C20.0095 35.6496 20.3087 35.7926 20.5057 35.9858C20.7027 36.179 20.8011 36.4299 20.8011 36.7386C20.8011 37 20.7254 37.233 20.5739 37.4375C20.4242 37.6402 20.215 37.7992 19.946 37.9148C19.679 38.0303 19.3693 38.0881 19.017 38.0881C18.5284 38.0881 18.1297 37.9839 17.821 37.7756C17.5123 37.5653 17.3229 37.267 17.2528 36.8807L18.0739 36.7557C18.125 36.9697 18.2301 37.1316 18.3892 37.2415C18.5483 37.3494 18.7557 37.4034 19.0114 37.4034C19.2898 37.4034 19.5123 37.3456 19.679 37.2301C19.8456 37.1127 19.929 36.9697 19.929 36.8011C19.929 36.6648 19.8778 36.5502 19.7756 36.4574C19.6752 36.3646 19.5208 36.2945 19.3125 36.2472L18.5739 36.0852C18.1667 35.9924 17.8655 35.8447 17.6705 35.642C17.4773 35.4394 17.3807 35.1828 17.3807 34.8722C17.3807 34.6146 17.4527 34.3892 17.5966 34.196C17.7405 34.0028 17.9394 33.8523 18.1932 33.7443C18.447 33.6345 18.7377 33.5795 19.0653 33.5795C19.5369 33.5795 19.9081 33.6818 20.179 33.8864C20.4498 34.089 20.6288 34.3608 20.7159 34.7017ZM25.005 34.7017L24.2351 34.8381C24.2029 34.7396 24.1518 34.6458 24.0817 34.5568C24.0135 34.4678 23.9207 34.3949 23.8033 34.3381C23.6858 34.2812 23.5391 34.2528 23.3629 34.2528C23.1224 34.2528 22.9216 34.3068 22.7607 34.4148C22.5997 34.5208 22.5192 34.6581 22.5192 34.8267C22.5192 34.9725 22.5732 35.09 22.6811 35.179C22.7891 35.268 22.9633 35.3409 23.2038 35.3977L23.897 35.5568C24.2985 35.6496 24.5978 35.7926 24.7947 35.9858C24.9917 36.179 25.0902 36.4299 25.0902 36.7386C25.0902 37 25.0144 37.233 24.8629 37.4375C24.7133 37.6402 24.504 37.7992 24.2351 37.9148C23.968 38.0303 23.6584 38.0881 23.3061 38.0881C22.8175 38.0881 22.4188 37.9839 22.1101 37.7756C21.8014 37.5653 21.612 37.267 21.5419 36.8807L22.3629 36.7557C22.4141 36.9697 22.5192 37.1316 22.6783 37.2415C22.8374 37.3494 23.0447 37.4034 23.3004 37.4034C23.5788 37.4034 23.8014 37.3456 23.968 37.2301C24.1347 37.1127 24.218 36.9697 24.218 36.8011C24.218 36.6648 24.1669 36.5502 24.0646 36.4574C23.9643 36.3646 23.8099 36.2945 23.6016 36.2472L22.8629 36.0852C22.4557 35.9924 22.1546 35.8447 21.9595 35.642C21.7663 35.4394 21.6697 35.1828 21.6697 34.8722C21.6697 34.6146 21.7417 34.3892 21.8857 34.196C22.0296 34.0028 22.2285 33.8523 22.4822 33.7443C22.736 33.6345 23.0268 33.5795 23.3544 33.5795C23.826 33.5795 24.1972 33.6818 24.468 33.8864C24.7389 34.089 24.9179 34.3608 25.005 34.7017ZM27.294 38.0966C27.0175 38.0966 26.7675 38.0455 26.544 37.9432C26.3205 37.839 26.1435 37.6884 26.0128 37.4915C25.884 37.2945 25.8196 37.053 25.8196 36.767C25.8196 36.5208 25.867 36.3182 25.9616 36.1591C26.0563 36 26.1842 35.8741 26.3452 35.7812C26.5062 35.6884 26.6861 35.6184 26.8849 35.571C27.0838 35.5237 27.2865 35.4877 27.4929 35.4631C27.7543 35.4328 27.9664 35.4081 28.1293 35.3892C28.2921 35.3684 28.4105 35.3352 28.4844 35.2898C28.5582 35.2443 28.5952 35.1705 28.5952 35.0682V35.0483C28.5952 34.8002 28.5251 34.608 28.3849 34.4716C28.2467 34.3352 28.0402 34.267 27.7656 34.267C27.4796 34.267 27.2543 34.3305 27.0895 34.4574C26.9266 34.5824 26.8139 34.7216 26.7514 34.875L25.9531 34.6932C26.0478 34.428 26.1861 34.214 26.3679 34.0511C26.5516 33.8864 26.7628 33.767 27.0014 33.6932C27.2401 33.6174 27.491 33.5795 27.7543 33.5795C27.9285 33.5795 28.1132 33.6004 28.3082 33.642C28.5052 33.6818 28.6889 33.7557 28.8594 33.8636C29.0317 33.9716 29.1728 34.1259 29.2827 34.3267C29.3925 34.5256 29.4474 34.7841 29.4474 35.1023V38H28.6179V37.4034H28.5838C28.5289 37.5133 28.4465 37.6212 28.3366 37.7273C28.2268 37.8333 28.0857 37.9214 27.9134 37.9915C27.741 38.0616 27.5346 38.0966 27.294 38.0966ZM27.4787 37.4148C27.7135 37.4148 27.9143 37.3684 28.081 37.2756C28.2495 37.1828 28.3774 37.0616 28.4645 36.9119C28.5535 36.7604 28.598 36.5985 28.598 36.4261V35.8636C28.5677 35.8939 28.509 35.9223 28.4219 35.9489C28.3366 35.9735 28.2391 35.9953 28.1293 36.0142C28.0194 36.0312 27.9124 36.0473 27.8082 36.0625C27.7041 36.0758 27.617 36.0871 27.5469 36.0966C27.3821 36.1174 27.2315 36.1525 27.0952 36.2017C26.9607 36.2509 26.8527 36.322 26.7713 36.4148C26.6918 36.5057 26.652 36.6269 26.652 36.7784C26.652 36.9886 26.7296 37.1477 26.8849 37.2557C27.0402 37.3617 27.2382 37.4148 27.4787 37.4148ZM32.4084 39.7273C32.0618 39.7273 31.7635 39.6818 31.5135 39.5909C31.2654 39.5 31.0627 39.3797 30.9055 39.2301C30.7483 39.0805 30.6309 38.9167 30.5533 38.7386L31.2834 38.4375C31.3345 38.5208 31.4027 38.6089 31.4879 38.7017C31.575 38.7964 31.6925 38.8769 31.8402 38.9432C31.9898 39.0095 32.1821 39.0426 32.4169 39.0426C32.7389 39.0426 33.005 38.964 33.2152 38.8068C33.4254 38.6515 33.5305 38.4034 33.5305 38.0625V37.2045H33.4766C33.4254 37.2973 33.3516 37.4006 33.255 37.5142C33.1603 37.6278 33.0296 37.7263 32.8629 37.8097C32.6963 37.893 32.4794 37.9347 32.2124 37.9347C31.8677 37.9347 31.5571 37.8542 31.2805 37.6932C31.0059 37.5303 30.7881 37.2907 30.6271 36.9744C30.468 36.6562 30.3885 36.2652 30.3885 35.8011C30.3885 35.3371 30.4671 34.9394 30.6243 34.608C30.7834 34.2765 31.0012 34.0227 31.2777 33.8466C31.5542 33.6686 31.8677 33.5795 32.218 33.5795C32.4889 33.5795 32.7076 33.625 32.8743 33.7159C33.041 33.8049 33.1707 33.9091 33.2635 34.0284C33.3582 34.1477 33.4311 34.2528 33.4822 34.3438H33.5447V33.6364H34.3771V38.0966C34.3771 38.4716 34.29 38.7794 34.1158 39.0199C33.9415 39.2604 33.7057 39.4384 33.4084 39.554C33.1129 39.6695 32.7796 39.7273 32.4084 39.7273ZM32.3999 37.2301C32.6442 37.2301 32.8506 37.1733 33.0192 37.0597C33.1896 36.9441 33.3184 36.7794 33.4055 36.5653C33.4946 36.3494 33.5391 36.0909 33.5391 35.7898C33.5391 35.4962 33.4955 35.2377 33.4084 35.0142C33.3213 34.7907 33.1934 34.6165 33.0249 34.4915C32.8563 34.3646 32.648 34.3011 32.3999 34.3011C32.1442 34.3011 31.9311 34.3674 31.7607 34.5C31.5902 34.6307 31.4614 34.8087 31.3743 35.0341C31.2891 35.2595 31.2464 35.5114 31.2464 35.7898C31.2464 36.0758 31.29 36.3267 31.3771 36.5426C31.4643 36.7585 31.593 36.9271 31.7635 37.0483C31.9358 37.1695 32.148 37.2301 32.3999 37.2301ZM37.397 38.0881C36.9671 38.0881 36.5968 37.9962 36.2862 37.8125C35.9775 37.6269 35.7389 37.3665 35.5703 37.0312C35.4036 36.6941 35.3203 36.2992 35.3203 35.8466C35.3203 35.3996 35.4036 35.0057 35.5703 34.6648C35.7389 34.3239 35.9737 34.0578 36.2749 33.8665C36.5779 33.6752 36.9321 33.5795 37.3374 33.5795C37.5836 33.5795 37.8222 33.6203 38.0533 33.7017C38.2843 33.7831 38.4917 33.911 38.6754 34.0852C38.8591 34.2595 39.004 34.4858 39.1101 34.7642C39.2161 35.0407 39.2692 35.3769 39.2692 35.7727V36.0739H35.8004V35.4375H38.4368C38.4368 35.214 38.3913 35.0161 38.3004 34.8438C38.2095 34.6695 38.0817 34.5322 37.9169 34.4318C37.754 34.3314 37.5627 34.2812 37.343 34.2812C37.1044 34.2812 36.8961 34.34 36.718 34.4574C36.5419 34.5729 36.4055 34.7244 36.3089 34.9119C36.2143 35.0975 36.1669 35.2992 36.1669 35.517V36.0142C36.1669 36.3059 36.218 36.554 36.3203 36.7585C36.4245 36.9631 36.5694 37.1193 36.755 37.2273C36.9406 37.3333 37.1574 37.3864 37.4055 37.3864C37.5665 37.3864 37.7133 37.3636 37.8459 37.3182C37.9785 37.2708 38.093 37.2008 38.1896 37.108C38.2862 37.0152 38.3601 36.9006 38.4112 36.7642L39.2152 36.9091C39.1508 37.1458 39.0353 37.3532 38.8686 37.5312C38.7038 37.7074 38.4964 37.8447 38.2464 37.9432C37.9983 38.0398 37.7152 38.0881 37.397 38.0881ZM43.4815 34.7017L42.7116 34.8381C42.6795 34.7396 42.6283 34.6458 42.5582 34.5568C42.4901 34.4678 42.3973 34.3949 42.2798 34.3381C42.1624 34.2812 42.0156 34.2528 41.8395 34.2528C41.599 34.2528 41.3982 34.3068 41.2372 34.4148C41.0762 34.5208 40.9957 34.6581 40.9957 34.8267C40.9957 34.9725 41.0497 35.09 41.1577 35.179C41.2656 35.268 41.4399 35.3409 41.6804 35.3977L42.3736 35.5568C42.7751 35.6496 43.0743 35.7926 43.2713 35.9858C43.4683 36.179 43.5668 36.4299 43.5668 36.7386C43.5668 37 43.491 37.233 43.3395 37.4375C43.1899 37.6402 42.9806 37.7992 42.7116 37.9148C42.4446 38.0303 42.1349 38.0881 41.7827 38.0881C41.294 38.0881 40.8954 37.9839 40.5866 37.7756C40.2779 37.5653 40.0885 37.267 40.0185 36.8807L40.8395 36.7557C40.8906 36.9697 40.9957 37.1316 41.1548 37.2415C41.3139 37.3494 41.5213 37.4034 41.777 37.4034C42.0554 37.4034 42.2779 37.3456 42.4446 37.2301C42.6113 37.1127 42.6946 36.9697 42.6946 36.8011C42.6946 36.6648 42.6435 36.5502 42.5412 36.4574C42.4408 36.3646 42.2865 36.2945 42.0781 36.2472L41.3395 36.0852C40.9323 35.9924 40.6312 35.8447 40.4361 35.642C40.2429 35.4394 40.1463 35.1828 40.1463 34.8722C40.1463 34.6146 40.2183 34.3892 40.3622 34.196C40.5062 34.0028 40.705 33.8523 40.9588 33.7443C41.2126 33.6345 41.5033 33.5795 41.831 33.5795C42.3026 33.5795 42.6738 33.6818 42.9446 33.8864C43.2154 34.089 43.3944 34.3608 43.4815 34.7017Z" fill="#090C9B"/>
<path d="M30.98 14.79V18.79C30.98 19.05 30.97 19.3 30.94 19.54C30.71 22.24 29.12 23.58 26.19 23.58H25.79C25.54 23.58 25.3 23.7 25.15 23.9L23.95 25.5C23.42 26.21 22.56 26.21 22.03 25.5L20.83 23.9C20.7 23.73 20.41 23.58 20.19 23.58H19.79C16.6 23.58 15 22.79 15 18.79V14.79C15 11.86 16.35 10.27 19.04 10.04C19.28 10.01 19.53 10 19.79 10H26.19C29.38 10 30.98 11.6 30.98 14.79Z" stroke="#090C9B" stroke-width="1.5" stroke-miterlimit="10" stroke-linecap="round" stroke-linejoin="round"/>
<path d="M34.98 10.79V14.79C34.98 17.73 33.63 19.31 30.94 19.54C30.97 19.3 30.98 19.05 30.98 18.79V14.79C30.98 11.6 29.38 10 26.19 10H19.79C19.53 10 19.28 10.01 19.04 10.04C19.27 7.35001 20.86 6 23.79 6H30.19C33.38 6 34.98 7.60001 34.98 10.79Z" stroke="#090C9B" stroke-width="1.5" stroke-miterlimit="10" stroke-linecap="round" stroke-linejoin="round"/>
<path d="M26.4955 17.25H26.5045" stroke="#090C9B" stroke-width="1.5" stroke-linecap="round" stroke-linejoin="round"/>
<path d="M22.9955 17.25H23.0045" stroke="#090C9B" stroke-width="1.5" stroke-linecap="round" stroke-linejoin="round"/>
<path d="M19.4955 17.25H19.5045" stroke="#090C9B" stroke-width="1.5" stroke-linecap="round" stroke-linejoin="round"/>
</svg>
