<svg width="50" height="50" viewBox="0 0 50 50" fill="none" xmlns="http://www.w3.org/2000/svg">
<path d="M5.70455 32.1818H6.54545L8.52273 37.0114H8.59091L10.5682 32.1818H11.4091V38H10.75V33.5795H10.6932L8.875 38H8.23864L6.42045 33.5795H6.36364V38H5.70455V32.1818ZM14.5604 38.0909C14.1399 38.0909 13.7772 37.9981 13.4723 37.8125C13.1693 37.625 12.9354 37.3636 12.7706 37.0284C12.6077 36.6913 12.5263 36.2992 12.5263 35.8523C12.5263 35.4053 12.6077 35.0114 12.7706 34.6705C12.9354 34.3277 13.1645 34.0606 13.4581 33.8693C13.7536 33.6761 14.0982 33.5795 14.4922 33.5795C14.7195 33.5795 14.9439 33.6174 15.1655 33.6932C15.3871 33.7689 15.5888 33.892 15.7706 34.0625C15.9524 34.2311 16.0973 34.4545 16.2053 34.733C16.3132 35.0114 16.3672 35.3542 16.3672 35.7614V36.0455H13.0036V35.4659H15.6854C15.6854 35.2197 15.6361 35 15.5376 34.8068C15.4411 34.6136 15.3028 34.4612 15.1229 34.3494C14.9448 34.2377 14.7346 34.1818 14.4922 34.1818C14.2251 34.1818 13.9941 34.2481 13.799 34.3807C13.6058 34.5114 13.4571 34.6818 13.353 34.892C13.2488 35.1023 13.1967 35.3277 13.1967 35.5682V35.9545C13.1967 36.2841 13.2536 36.5634 13.3672 36.7926C13.4827 37.0199 13.6428 37.1932 13.8473 37.3125C14.0518 37.4299 14.2895 37.4886 14.5604 37.4886C14.7365 37.4886 14.8956 37.464 15.0376 37.4148C15.1816 37.3636 15.3056 37.2879 15.4098 37.1875C15.514 37.0852 15.5945 36.9583 15.6513 36.8068L16.299 36.9886C16.2308 37.2083 16.1162 37.4015 15.9553 37.5682C15.7943 37.733 15.5954 37.8617 15.3587 37.9545C15.1219 38.0455 14.8558 38.0909 14.5604 38.0909ZM20.478 34.6136L19.8757 34.7841C19.8378 34.6837 19.782 34.5862 19.7081 34.4915C19.6361 34.3949 19.5376 34.3153 19.4126 34.2528C19.2876 34.1903 19.1276 34.1591 18.9325 34.1591C18.6655 34.1591 18.4429 34.2206 18.2649 34.3438C18.0888 34.465 18.0007 34.6193 18.0007 34.8068C18.0007 34.9735 18.0613 35.1051 18.1825 35.2017C18.3037 35.2983 18.4931 35.3788 18.7507 35.4432L19.3984 35.6023C19.7886 35.697 20.0793 35.8419 20.2706 36.0369C20.4619 36.2301 20.5575 36.4792 20.5575 36.7841C20.5575 37.0341 20.4856 37.2576 20.3416 37.4545C20.1996 37.6515 20.0007 37.8068 19.745 37.9205C19.4893 38.0341 19.192 38.0909 18.853 38.0909C18.4079 38.0909 18.0395 37.9943 17.7479 37.8011C17.4562 37.608 17.2715 37.3258 17.1939 36.9545L17.8303 36.7955C17.8909 37.0303 18.0054 37.2064 18.174 37.3239C18.3445 37.4413 18.567 37.5 18.8416 37.5C19.1541 37.5 19.4022 37.4337 19.5859 37.3011C19.7715 37.1667 19.8643 37.0057 19.8643 36.8182C19.8643 36.6667 19.8113 36.5398 19.7053 36.4375C19.5992 36.3333 19.4363 36.2557 19.2166 36.2045L18.4893 36.0341C18.0897 35.9394 17.7962 35.7926 17.6087 35.5938C17.4231 35.393 17.3303 35.142 17.3303 34.8409C17.3303 34.5947 17.3994 34.3769 17.5376 34.1875C17.6778 33.9981 17.8681 33.8494 18.1087 33.7415C18.3511 33.6335 18.6257 33.5795 18.9325 33.5795C19.3643 33.5795 19.7034 33.6742 19.9496 33.8636C20.1977 34.053 20.3738 34.303 20.478 34.6136ZM24.6577 34.6136L24.0554 34.7841C24.0175 34.6837 23.9616 34.5862 23.8878 34.4915C23.8158 34.3949 23.7173 34.3153 23.5923 34.2528C23.4673 34.1903 23.3073 34.1591 23.1122 34.1591C22.8452 34.1591 22.6226 34.2206 22.4446 34.3438C22.2685 34.465 22.1804 34.6193 22.1804 34.8068C22.1804 34.9735 22.241 35.1051 22.3622 35.2017C22.4834 35.2983 22.6728 35.3788 22.9304 35.4432L23.5781 35.6023C23.9683 35.697 24.259 35.8419 24.4503 36.0369C24.6416 36.2301 24.7372 36.4792 24.7372 36.7841C24.7372 37.0341 24.6652 37.2576 24.5213 37.4545C24.3793 37.6515 24.1804 37.8068 23.9247 37.9205C23.669 38.0341 23.3717 38.0909 23.0327 38.0909C22.5876 38.0909 22.2192 37.9943 21.9276 37.8011C21.6359 37.608 21.4512 37.3258 21.3736 36.9545L22.0099 36.7955C22.0705 37.0303 22.1851 37.2064 22.3537 37.3239C22.5241 37.4413 22.7467 37.5 23.0213 37.5C23.3338 37.5 23.5819 37.4337 23.7656 37.3011C23.9512 37.1667 24.044 37.0057 24.044 36.8182C24.044 36.6667 23.991 36.5398 23.8849 36.4375C23.7789 36.3333 23.616 36.2557 23.3963 36.2045L22.669 36.0341C22.2694 35.9394 21.9759 35.7926 21.7884 35.5938C21.6027 35.393 21.5099 35.142 21.5099 34.8409C21.5099 34.5947 21.5791 34.3769 21.7173 34.1875C21.8575 33.9981 22.0478 33.8494 22.2884 33.7415C22.5308 33.6335 22.8054 33.5795 23.1122 33.5795C23.544 33.5795 23.883 33.6742 24.1293 33.8636C24.3774 34.053 24.5535 34.303 24.6577 34.6136ZM27.0305 38.1023C26.754 38.1023 26.5031 38.0502 26.2777 37.946C26.0523 37.84 25.8733 37.6875 25.7408 37.4886C25.6082 37.2879 25.5419 37.0455 25.5419 36.7614C25.5419 36.5114 25.5911 36.3087 25.6896 36.1534C25.7881 35.9962 25.9197 35.8731 26.0845 35.7841C26.2493 35.6951 26.4311 35.6288 26.63 35.5852C26.8307 35.5398 27.0324 35.5038 27.2351 35.4773C27.5002 35.4432 27.7152 35.4176 27.88 35.4006C28.0466 35.3816 28.1679 35.3504 28.2436 35.3068C28.3213 35.2633 28.3601 35.1875 28.3601 35.0795V35.0568C28.3601 34.7765 28.2834 34.5587 28.13 34.4034C27.9785 34.2481 27.7483 34.1705 27.4396 34.1705C27.1196 34.1705 26.8686 34.2405 26.6868 34.3807C26.505 34.5208 26.3771 34.6705 26.3033 34.8295L25.6669 34.6023C25.7805 34.3371 25.9321 34.1307 26.1214 33.983C26.3127 33.8333 26.5211 33.7292 26.7464 33.6705C26.9737 33.6098 27.1972 33.5795 27.4169 33.5795C27.5571 33.5795 27.718 33.5966 27.8999 33.6307C28.0836 33.6629 28.2607 33.7301 28.4311 33.8324C28.6035 33.9347 28.7464 34.089 28.8601 34.2955C28.9737 34.5019 29.0305 34.7784 29.0305 35.125V38H28.3601V37.4091H28.326C28.2805 37.5038 28.2048 37.6051 28.0987 37.7131C27.9927 37.821 27.8516 37.9129 27.6754 37.9886C27.4993 38.0644 27.2843 38.1023 27.0305 38.1023ZM27.1328 37.5C27.398 37.5 27.6214 37.4479 27.8033 37.3438C27.987 37.2396 28.1252 37.1051 28.218 36.9403C28.3127 36.7756 28.3601 36.6023 28.3601 36.4205V35.8068C28.3317 35.8409 28.2692 35.8722 28.1726 35.9006C28.0779 35.9271 27.968 35.9508 27.843 35.9716C27.7199 35.9905 27.5997 36.0076 27.4822 36.0227C27.3667 36.036 27.273 36.0473 27.201 36.0568C27.0268 36.0795 26.8639 36.1165 26.7124 36.1676C26.5627 36.2169 26.4415 36.2917 26.3487 36.392C26.2578 36.4905 26.2124 36.625 26.2124 36.7955C26.2124 37.0284 26.2985 37.2045 26.4709 37.3239C26.6451 37.4413 26.8658 37.5 27.1328 37.5ZM32.0156 39.7273C31.6918 39.7273 31.4134 39.6856 31.1804 39.6023C30.9474 39.5208 30.7533 39.4129 30.598 39.2784C30.4446 39.1458 30.3224 39.0038 30.2315 38.8523L30.7656 38.4773C30.8262 38.5568 30.9029 38.6477 30.9957 38.75C31.0885 38.8542 31.2154 38.9441 31.3764 39.0199C31.5393 39.0975 31.7524 39.1364 32.0156 39.1364C32.3679 39.1364 32.6586 39.0511 32.8878 38.8807C33.117 38.7102 33.2315 38.4432 33.2315 38.0795V37.1932H33.1747C33.1255 37.2727 33.0554 37.3712 32.9645 37.4886C32.8755 37.6042 32.7467 37.7074 32.5781 37.7983C32.4115 37.8873 32.1861 37.9318 31.902 37.9318C31.5497 37.9318 31.2334 37.8485 30.9531 37.6818C30.6747 37.5152 30.4541 37.2727 30.2912 36.9545C30.1302 36.6364 30.0497 36.25 30.0497 35.7955C30.0497 35.3485 30.1283 34.9593 30.2855 34.6278C30.4427 34.2945 30.6615 34.0369 30.9418 33.8551C31.2221 33.6714 31.5459 33.5795 31.9134 33.5795C32.1974 33.5795 32.4228 33.6269 32.5895 33.7216C32.758 33.8144 32.8868 33.9205 32.9759 34.0398C33.0668 34.1572 33.1368 34.2538 33.1861 34.3295H33.2543V33.6364H33.902V38.125C33.902 38.5 33.8168 38.8049 33.6463 39.0398C33.4777 39.2765 33.2505 39.4498 32.9645 39.5597C32.6804 39.6714 32.3641 39.7273 32.0156 39.7273ZM31.9929 37.3295C32.2618 37.3295 32.4891 37.268 32.6747 37.1449C32.8603 37.0218 33.0014 36.8447 33.098 36.6136C33.1946 36.3826 33.2429 36.1061 33.2429 35.7841C33.2429 35.4697 33.1955 35.1922 33.1009 34.9517C33.0062 34.7112 32.866 34.5227 32.6804 34.3864C32.4948 34.25 32.2656 34.1818 31.9929 34.1818C31.7088 34.1818 31.4721 34.2538 31.2827 34.3977C31.0952 34.5417 30.9541 34.7348 30.8594 34.9773C30.7666 35.2197 30.7202 35.4886 30.7202 35.7841C30.7202 36.0871 30.7675 36.3551 30.8622 36.5881C30.9588 36.8191 31.1009 37.0009 31.2884 37.1335C31.4777 37.2642 31.7126 37.3295 31.9929 37.3295ZM36.9588 38.0909C36.5384 38.0909 36.1757 37.9981 35.8707 37.8125C35.5677 37.625 35.3338 37.3636 35.169 37.0284C35.0062 36.6913 34.9247 36.2992 34.9247 35.8523C34.9247 35.4053 35.0062 35.0114 35.169 34.6705C35.3338 34.3277 35.563 34.0606 35.8565 33.8693C36.152 33.6761 36.4967 33.5795 36.8906 33.5795C37.1179 33.5795 37.3423 33.6174 37.5639 33.6932C37.7855 33.7689 37.9872 33.892 38.169 34.0625C38.3509 34.2311 38.4957 34.4545 38.6037 34.733C38.7116 35.0114 38.7656 35.3542 38.7656 35.7614V36.0455H35.402V35.4659H38.0838C38.0838 35.2197 38.0346 35 37.9361 34.8068C37.8395 34.6136 37.7012 34.4612 37.5213 34.3494C37.3433 34.2377 37.133 34.1818 36.8906 34.1818C36.6236 34.1818 36.3925 34.2481 36.1974 34.3807C36.0043 34.5114 35.8556 34.6818 35.7514 34.892C35.6473 35.1023 35.5952 35.3277 35.5952 35.5682V35.9545C35.5952 36.2841 35.652 36.5634 35.7656 36.7926C35.8812 37.0199 36.0412 37.1932 36.2457 37.3125C36.4503 37.4299 36.688 37.4886 36.9588 37.4886C37.1349 37.4886 37.294 37.464 37.4361 37.4148C37.58 37.3636 37.7041 37.2879 37.8082 37.1875C37.9124 37.0852 37.9929 36.9583 38.0497 36.8068L38.6974 36.9886C38.6293 37.2083 38.5147 37.4015 38.3537 37.5682C38.1927 37.733 37.9938 37.8617 37.7571 37.9545C37.5204 38.0455 37.2543 38.0909 36.9588 38.0909ZM42.8764 34.6136L42.2741 34.7841C42.2363 34.6837 42.1804 34.5862 42.1065 34.4915C42.0346 34.3949 41.9361 34.3153 41.8111 34.2528C41.6861 34.1903 41.526 34.1591 41.331 34.1591C41.0639 34.1591 40.8414 34.2206 40.6634 34.3438C40.4872 34.465 40.3991 34.6193 40.3991 34.8068C40.3991 34.9735 40.4598 35.1051 40.581 35.2017C40.7022 35.2983 40.8916 35.3788 41.1491 35.4432L41.7969 35.6023C42.187 35.697 42.4777 35.8419 42.669 36.0369C42.8603 36.2301 42.956 36.4792 42.956 36.7841C42.956 37.0341 42.884 37.2576 42.7401 37.4545C42.598 37.6515 42.3991 37.8068 42.1435 37.9205C41.8878 38.0341 41.5904 38.0909 41.2514 38.0909C40.8063 38.0909 40.438 37.9943 40.1463 37.8011C39.8546 37.608 39.67 37.3258 39.5923 36.9545L40.2287 36.7955C40.2893 37.0303 40.4039 37.2064 40.5724 37.3239C40.7429 37.4413 40.9654 37.5 41.2401 37.5C41.5526 37.5 41.8007 37.4337 41.9844 37.3011C42.17 37.1667 42.2628 37.0057 42.2628 36.8182C42.2628 36.6667 42.2098 36.5398 42.1037 36.4375C41.9976 36.3333 41.8348 36.2557 41.6151 36.2045L40.8878 36.0341C40.4882 35.9394 40.1946 35.7926 40.0071 35.5938C39.8215 35.393 39.7287 35.142 39.7287 34.8409C39.7287 34.5947 39.7978 34.3769 39.9361 34.1875C40.0762 33.9981 40.2666 33.8494 40.5071 33.7415C40.7495 33.6335 41.0241 33.5795 41.331 33.5795C41.7628 33.5795 42.1018 33.6742 42.348 33.8636C42.5961 34.053 42.7723 34.303 42.8764 34.6136Z" fill="#333333"/>
<path d="M30.98 14.79V18.79C30.98 19.05 30.97 19.3 30.94 19.54C30.71 22.24 29.12 23.58 26.19 23.58H25.79C25.54 23.58 25.3 23.7 25.15 23.9L23.95 25.5C23.42 26.21 22.56 26.21 22.03 25.5L20.83 23.9C20.7 23.73 20.41 23.58 20.19 23.58H19.79C16.6 23.58 15 22.79 15 18.79V14.79C15 11.86 16.35 10.27 19.04 10.04C19.28 10.01 19.53 10 19.79 10H26.19C29.38 10 30.98 11.6 30.98 14.79Z" stroke="#171717" stroke-width="1.5" stroke-miterlimit="10" stroke-linecap="round" stroke-linejoin="round"/>
<path d="M34.98 10.79V14.79C34.98 17.73 33.63 19.31 30.94 19.54C30.97 19.3 30.98 19.05 30.98 18.79V14.79C30.98 11.6 29.38 10 26.19 10H19.79C19.53 10 19.28 10.01 19.04 10.04C19.27 7.35001 20.86 6 23.79 6H30.19C33.38 6 34.98 7.60001 34.98 10.79Z" stroke="#171717" stroke-width="1.5" stroke-miterlimit="10" stroke-linecap="round" stroke-linejoin="round"/>
<path d="M26.4955 17.25H26.5045" stroke="#171717" stroke-width="1.5" stroke-linecap="round" stroke-linejoin="round"/>
<path d="M22.9955 17.25H23.0045" stroke="#171717" stroke-width="1.5" stroke-linecap="round" stroke-linejoin="round"/>
<path d="M19.4955 17.25H19.5045" stroke="#171717" stroke-width="1.5" stroke-linecap="round" stroke-linejoin="round"/>
</svg>
