<svg width="50" height="50" viewBox="0 0 50 50" fill="none" xmlns="http://www.w3.org/2000/svg">
<path d="M13.6392 40V34.1818H15.7131C16.1657 34.1818 16.5407 34.2642 16.8381 34.429C17.1354 34.5937 17.358 34.8191 17.5057 35.1051C17.6534 35.3892 17.7273 35.7093 17.7273 36.0653C17.7273 36.4233 17.6525 36.7453 17.5028 37.0312C17.3551 37.3153 17.1316 37.5407 16.8324 37.7074C16.535 37.8722 16.161 37.9545 15.7102 37.9545H14.2841V37.2102H15.6307C15.9167 37.2102 16.1487 37.161 16.3267 37.0625C16.5047 36.9621 16.6354 36.8258 16.7188 36.6534C16.8021 36.4811 16.8438 36.285 16.8438 36.0653C16.8438 35.8456 16.8021 35.6506 16.7188 35.4801C16.6354 35.3097 16.5038 35.1761 16.3239 35.0795C16.1458 34.983 15.911 34.9347 15.6193 34.9347H14.517V40H13.6392ZM18.6882 40V35.6364H19.5092V36.3295H19.5547C19.6342 36.0947 19.7744 35.91 19.9751 35.7756C20.1778 35.6392 20.407 35.571 20.6626 35.571C20.7157 35.571 20.7782 35.5729 20.8501 35.5767C20.924 35.5805 20.9818 35.5852 21.0234 35.5909V36.4034C20.9893 36.3939 20.9287 36.3835 20.8416 36.3722C20.7545 36.3589 20.6674 36.3523 20.5803 36.3523C20.3795 36.3523 20.2005 36.3949 20.0433 36.4801C19.888 36.5634 19.7649 36.6799 19.674 36.8295C19.5831 36.9773 19.5376 37.1458 19.5376 37.3352V40H18.6882ZM23.4403 40.0881C23.0313 40.0881 22.6742 39.9943 22.3693 39.8068C22.0644 39.6193 21.8277 39.357 21.6591 39.0199C21.4905 38.6828 21.4062 38.2888 21.4062 37.8381C21.4062 37.3854 21.4905 36.9896 21.6591 36.6506C21.8277 36.3116 22.0644 36.0483 22.3693 35.8608C22.6742 35.6733 23.0313 35.5795 23.4403 35.5795C23.8494 35.5795 24.2064 35.6733 24.5114 35.8608C24.8163 36.0483 25.053 36.3116 25.2216 36.6506C25.3902 36.9896 25.4744 37.3854 25.4744 37.8381C25.4744 38.2888 25.3902 38.6828 25.2216 39.0199C25.053 39.357 24.8163 39.6193 24.5114 39.8068C24.2064 39.9943 23.8494 40.0881 23.4403 40.0881ZM23.4432 39.375C23.7083 39.375 23.928 39.3049 24.1023 39.1648C24.2765 39.0246 24.4053 38.8381 24.4886 38.6051C24.5739 38.3722 24.6165 38.1155 24.6165 37.8352C24.6165 37.5568 24.5739 37.3011 24.4886 37.0682C24.4053 36.8333 24.2765 36.6449 24.1023 36.5028C23.928 36.3608 23.7083 36.2898 23.4432 36.2898C23.1761 36.2898 22.9545 36.3608 22.7784 36.5028C22.6042 36.6449 22.4744 36.8333 22.3892 37.0682C22.3059 37.3011 22.2642 37.5568 22.2642 37.8352C22.2642 38.1155 22.3059 38.3722 22.3892 38.6051C22.4744 38.8381 22.6042 39.0246 22.7784 39.1648C22.9545 39.3049 23.1761 39.375 23.4432 39.375ZM28.4993 35.6364V36.3182H26.0334V35.6364H28.4993ZM26.7095 40V35.1307C26.7095 34.858 26.7692 34.6316 26.8885 34.4517C27.0078 34.2699 27.166 34.1345 27.3629 34.0455C27.5599 33.9545 27.7739 33.9091 28.005 33.9091C28.1754 33.9091 28.3213 33.9233 28.4425 33.9517C28.5637 33.9782 28.6536 34.0028 28.7124 34.0256L28.5135 34.7131C28.4737 34.7017 28.4226 34.6884 28.3601 34.6733C28.2976 34.6562 28.2218 34.6477 28.1328 34.6477C27.9264 34.6477 27.7786 34.6989 27.6896 34.8011C27.6025 34.9034 27.5589 35.0511 27.5589 35.2443V40H26.7095ZM29.3757 40V35.6364H30.2251V40H29.3757ZM29.8047 34.9631C29.657 34.9631 29.5301 34.9138 29.424 34.8153C29.3198 34.715 29.2678 34.5956 29.2678 34.4574C29.2678 34.3172 29.3198 34.1979 29.424 34.0994C29.5301 33.9991 29.657 33.9489 29.8047 33.9489C29.9524 33.9489 30.0784 33.9991 30.1825 34.0994C30.2886 34.1979 30.3416 34.3172 30.3416 34.4574C30.3416 34.5956 30.2886 34.715 30.1825 34.8153C30.0784 34.9138 29.9524 34.9631 29.8047 34.9631ZM32.2173 34.1818V40H31.3679V34.1818H32.2173ZM35.2408 40.0881C34.8108 40.0881 34.4406 39.9962 34.13 39.8125C33.8213 39.6269 33.5826 39.3665 33.4141 39.0312C33.2474 38.6941 33.1641 38.2992 33.1641 37.8466C33.1641 37.3996 33.2474 37.0057 33.4141 36.6648C33.5826 36.3239 33.8175 36.0578 34.1186 35.8665C34.4216 35.6752 34.7758 35.5795 35.1811 35.5795C35.4273 35.5795 35.666 35.6203 35.897 35.7017C36.1281 35.7831 36.3355 35.911 36.5192 36.0852C36.7029 36.2595 36.8478 36.4858 36.9538 36.7642C37.0599 37.0407 37.1129 37.3769 37.1129 37.7727V38.0739H33.6442V37.4375H36.2805C36.2805 37.214 36.2351 37.0161 36.1442 36.8438C36.0533 36.6695 35.9254 36.5322 35.7607 36.4318C35.5978 36.3314 35.4065 36.2812 35.1868 36.2812C34.9482 36.2812 34.7398 36.34 34.5618 36.4574C34.3857 36.5729 34.2493 36.7244 34.1527 36.9119C34.058 37.0975 34.0107 37.2992 34.0107 37.517V38.0142C34.0107 38.3059 34.0618 38.554 34.1641 38.7585C34.2682 38.9631 34.4131 39.1193 34.5987 39.2273C34.7843 39.3333 35.0012 39.3864 35.2493 39.3864C35.4103 39.3864 35.5571 39.3636 35.6896 39.3182C35.8222 39.2708 35.9368 39.2008 36.0334 39.108C36.13 39.0152 36.2038 38.9006 36.255 38.7642L37.0589 38.9091C36.9946 39.1458 36.879 39.3532 36.7124 39.5312C36.5476 39.7074 36.3402 39.8447 36.0902 39.9432C35.8421 40.0398 35.5589 40.0881 35.2408 40.0881Z" fill="#090C9B"/>
<path d="M25.12 18.78C25.05 18.77 24.96 18.77 24.88 18.78C23.12 18.72 21.72 17.28 21.72 15.51C21.72 13.7 23.18 12.23 25 12.23C26.81 12.23 28.28 13.7 28.28 15.51C28.27 17.28 26.88 18.72 25.12 18.78Z" stroke="#090C9B" stroke-width="1.5" stroke-linecap="round" stroke-linejoin="round"/>
<path d="M31.74 25.38C29.96 27.01 27.6 28 25 28C22.4 28 20.04 27.01 18.26 25.38C18.36 24.44 18.96 23.52 20.03 22.8C22.77 20.98 27.25 20.98 29.97 22.8C31.04 23.52 31.64 24.44 31.74 25.38Z" stroke="#090C9B" stroke-width="1.5" stroke-linecap="round" stroke-linejoin="round"/>
<path d="M25 28C30.5228 28 35 23.5228 35 18C35 12.4772 30.5228 8 25 8C19.4772 8 15 12.4772 15 18C15 23.5228 19.4772 28 25 28Z" stroke="#090C9B" stroke-width="1.5" stroke-linecap="round" stroke-linejoin="round"/>
</svg>
