<svg width="50" height="50" viewBox="0 0 50 50" fill="none" xmlns="http://www.w3.org/2000/svg">
<path d="M13.7045 38V32.1818H15.6705C16.1269 32.1818 16.5 32.2642 16.7898 32.429C17.0814 32.5919 17.2973 32.8125 17.4375 33.0909C17.5777 33.3693 17.6477 33.6799 17.6477 34.0227C17.6477 34.3655 17.5777 34.6771 17.4375 34.9574C17.2992 35.2377 17.0852 35.4612 16.7955 35.6278C16.5057 35.7926 16.1345 35.875 15.6818 35.875H14.2727V35.25H15.6591C15.9716 35.25 16.2225 35.196 16.4119 35.0881C16.6013 34.9801 16.7386 34.8343 16.8239 34.6506C16.911 34.465 16.9545 34.2557 16.9545 34.0227C16.9545 33.7898 16.911 33.5814 16.8239 33.3977C16.7386 33.214 16.6004 33.0701 16.4091 32.9659C16.2178 32.8598 15.964 32.8068 15.6477 32.8068H14.4091V38H13.7045ZM18.6918 38V33.6364H19.3395V34.2955H19.3849C19.4645 34.0795 19.6084 33.9044 19.8168 33.7699C20.0251 33.6354 20.2599 33.5682 20.5213 33.5682C20.5705 33.5682 20.6321 33.5691 20.706 33.571C20.7798 33.5729 20.8357 33.5758 20.8736 33.5795V34.2614C20.8509 34.2557 20.7988 34.2472 20.7173 34.2358C20.6378 34.2225 20.5535 34.2159 20.4645 34.2159C20.2524 34.2159 20.063 34.2604 19.8963 34.3494C19.7315 34.4366 19.6009 34.5578 19.5043 34.7131C19.4096 34.8665 19.3622 35.0417 19.3622 35.2386V38H18.6918ZM23.3082 38.0909C22.9143 38.0909 22.5687 37.9972 22.2713 37.8097C21.9759 37.6222 21.7448 37.3598 21.5781 37.0227C21.4134 36.6856 21.331 36.2917 21.331 35.8409C21.331 35.3864 21.4134 34.9896 21.5781 34.6506C21.7448 34.3116 21.9759 34.0483 22.2713 33.8608C22.5687 33.6733 22.9143 33.5795 23.3082 33.5795C23.7022 33.5795 24.0469 33.6733 24.3423 33.8608C24.6397 34.0483 24.8707 34.3116 25.0355 34.6506C25.2022 34.9896 25.2855 35.3864 25.2855 35.8409C25.2855 36.2917 25.2022 36.6856 25.0355 37.0227C24.8707 37.3598 24.6397 37.6222 24.3423 37.8097C24.0469 37.9972 23.7022 38.0909 23.3082 38.0909ZM23.3082 37.4886C23.6075 37.4886 23.8537 37.4119 24.0469 37.2585C24.2401 37.1051 24.383 36.9034 24.4759 36.6534C24.5687 36.4034 24.6151 36.1326 24.6151 35.8409C24.6151 35.5492 24.5687 35.2775 24.4759 35.0256C24.383 34.7737 24.2401 34.5701 24.0469 34.4148C23.8537 34.2595 23.6075 34.1818 23.3082 34.1818C23.009 34.1818 22.7628 34.2595 22.5696 34.4148C22.3764 34.5701 22.2334 34.7737 22.1406 35.0256C22.0478 35.2775 22.0014 35.5492 22.0014 35.8409C22.0014 36.1326 22.0478 36.4034 22.1406 36.6534C22.2334 36.9034 22.3764 37.1051 22.5696 37.2585C22.7628 37.4119 23.009 37.4886 23.3082 37.4886ZM28.2521 33.6364V34.2045H25.8999V33.6364H28.2521ZM26.6044 38V33.0341C26.6044 32.7841 26.6631 32.5758 26.7805 32.4091C26.898 32.2424 27.0504 32.1174 27.2379 32.0341C27.4254 31.9508 27.6233 31.9091 27.8317 31.9091C27.9964 31.9091 28.1309 31.9223 28.2351 31.9489C28.3393 31.9754 28.4169 32 28.468 32.0227L28.2749 32.6023C28.2408 32.5909 28.1934 32.5767 28.1328 32.5597C28.0741 32.5426 27.9964 32.5341 27.8999 32.5341C27.6783 32.5341 27.5182 32.59 27.4197 32.7017C27.3232 32.8134 27.2749 32.9773 27.2749 33.1932V38H26.6044ZM29.1918 38V33.6364H29.8622V38H29.1918ZM29.5327 32.9091C29.402 32.9091 29.2893 32.8646 29.1946 32.7756C29.1018 32.6866 29.0554 32.5795 29.0554 32.4545C29.0554 32.3295 29.1018 32.2225 29.1946 32.1335C29.2893 32.0445 29.402 32 29.5327 32C29.6634 32 29.7751 32.0445 29.8679 32.1335C29.9626 32.2225 30.0099 32.3295 30.0099 32.4545C30.0099 32.5795 29.9626 32.6866 29.8679 32.7756C29.7751 32.8646 29.6634 32.9091 29.5327 32.9091ZM31.7607 32.1818V38H31.0902V32.1818H31.7607ZM34.8182 38.0909C34.3977 38.0909 34.035 37.9981 33.7301 37.8125C33.4271 37.625 33.1932 37.3636 33.0284 37.0284C32.8655 36.6913 32.7841 36.2992 32.7841 35.8523C32.7841 35.4053 32.8655 35.0114 33.0284 34.6705C33.1932 34.3277 33.4223 34.0606 33.7159 33.8693C34.0114 33.6761 34.3561 33.5795 34.75 33.5795C34.9773 33.5795 35.2017 33.6174 35.4233 33.6932C35.6449 33.7689 35.8466 33.892 36.0284 34.0625C36.2102 34.2311 36.3551 34.4545 36.4631 34.733C36.571 35.0114 36.625 35.3542 36.625 35.7614V36.0455H33.2614V35.4659H35.9432C35.9432 35.2197 35.8939 35 35.7955 34.8068C35.6989 34.6136 35.5606 34.4612 35.3807 34.3494C35.2027 34.2377 34.9924 34.1818 34.75 34.1818C34.483 34.1818 34.2519 34.2481 34.0568 34.3807C33.8636 34.5114 33.715 34.6818 33.6108 34.892C33.5066 35.1023 33.4545 35.3277 33.4545 35.5682V35.9545C33.4545 36.2841 33.5114 36.5634 33.625 36.7926C33.7405 37.0199 33.9006 37.1932 34.1051 37.3125C34.3097 37.4299 34.5473 37.4886 34.8182 37.4886C34.9943 37.4886 35.1534 37.464 35.2955 37.4148C35.4394 37.3636 35.5634 37.2879 35.6676 37.1875C35.7718 37.0852 35.8523 36.9583 35.9091 36.8068L36.5568 36.9886C36.4886 37.2083 36.3741 37.4015 36.2131 37.5682C36.0521 37.733 35.8532 37.8617 35.6165 37.9545C35.3797 38.0455 35.1136 38.0909 34.8182 38.0909Z" fill="#333333"/>
<path d="M25.12 16.78C25.05 16.77 24.96 16.77 24.88 16.78C23.12 16.72 21.72 15.28 21.72 13.51C21.72 11.7 23.18 10.23 25 10.23C26.81 10.23 28.28 11.7 28.28 13.51C28.27 15.28 26.88 16.72 25.12 16.78Z" stroke="#171717" stroke-width="1.5" stroke-linecap="round" stroke-linejoin="round"/>
<path d="M31.74 23.38C29.96 25.01 27.6 26 25 26C22.4 26 20.04 25.01 18.26 23.38C18.36 22.44 18.96 21.52 20.03 20.8C22.77 18.98 27.25 18.98 29.97 20.8C31.04 21.52 31.64 22.44 31.74 23.38Z" stroke="#171717" stroke-width="1.5" stroke-linecap="round" stroke-linejoin="round"/>
<path d="M25 26C30.5228 26 35 21.5228 35 16C35 10.4772 30.5228 6 25 6C19.4772 6 15 10.4772 15 16C15 21.5228 19.4772 26 25 26Z" stroke="#171717" stroke-width="1.5" stroke-linecap="round" stroke-linejoin="round"/>
</svg>
